<svg width="231" height="42" viewBox="0 0 231 42" fill="none" xmlns="http://www.w3.org/2000/svg">
<g clip-path="url(#clip0_14_921)">
<rect x="32.0361" y="20.7644" width="6.71181" height="6.71181" transform="rotate(-45 32.0361 20.7644)" fill="#009E38"/>
<rect y="20.7634" width="6.71181" height="6.71181" transform="rotate(-45 0 20.7634)" fill="#009E38"/>
<rect x="5.33948" y="26.103" width="6.71181" height="6.71181" transform="rotate(-45 5.33948 26.103)" fill="#009E38"/>
<rect x="10.679" y="31.4424" width="6.71181" height="6.71181" transform="rotate(-45 10.679 31.4424)" fill="#009E38"/>
<rect x="16.0185" y="36.782" width="6.71181" height="6.71181" transform="rotate(-45 16.0185 36.782)" fill="#009E38"/>
<rect x="5.33923" y="15.4243" width="6.71181" height="6.71181" transform="rotate(-45 5.33923 15.4243)" fill="#009E38"/>
<rect x="10.6786" y="20.7639" width="6.71181" height="6.71181" transform="rotate(-45 10.6786 20.7639)" fill="#E63916"/>
<rect x="16.0182" y="26.1035" width="6.71181" height="6.71181" transform="rotate(-45 16.0182 26.1035)" fill="#1A479C"/>
<rect x="21.3577" y="31.4426" width="6.71181" height="6.71181" transform="rotate(-45 21.3577 31.4426)" fill="#009E38"/>
<rect x="10.6785" y="10.085" width="6.71181" height="6.71181" transform="rotate(-45 10.6785 10.085)" fill="#009E38"/>
<rect x="16.0179" y="15.4246" width="6.71181" height="6.71181" transform="rotate(-45 16.0179 15.4246)" fill="#1A479C"/>
<rect x="21.3574" y="20.7642" width="6.71181" height="6.71181" transform="rotate(-45 21.3574 20.7642)" fill="#E63916"/>
<rect x="26.6969" y="26.1035" width="6.71181" height="6.71181" transform="rotate(-45 26.6969 26.1035)" fill="#009E38"/>
<rect x="16.0179" y="4.74561" width="6.71181" height="6.71181" transform="rotate(-45 16.0179 4.74561)" fill="#009E38"/>
<rect x="21.3572" y="10.0852" width="6.71181" height="6.71181" transform="rotate(-45 21.3572 10.0852)" fill="#009E38"/>
<rect x="26.6966" y="15.4248" width="6.71181" height="6.71181" transform="rotate(-45 26.6966 15.4248)" fill="#009E38"/>
<path d="M47.8532 29.6777V12.8693H50.3788C51.5037 12.8693 52.4 12.9563 53.0677 13.1305C53.7427 13.3047 54.3124 13.5986 54.7769 14.0123C55.2486 14.4405 55.6224 14.9739 55.8982 15.6126C56.1812 16.2585 56.3227 16.9117 56.3227 17.5721C56.3227 18.7769 55.8619 19.7966 54.9402 20.6312C55.8328 20.936 56.5368 21.4694 57.0521 22.2315C57.5746 22.9863 57.8359 23.8644 57.8359 24.866C57.8359 26.1796 57.3714 27.29 56.4425 28.1972C55.8836 28.756 55.2559 29.1443 54.5591 29.362C53.7971 29.5725 52.8427 29.6777 51.696 29.6777H47.8532ZM50.3897 20.0869H51.1844C52.1279 20.0869 52.8173 19.88 53.2528 19.4664C53.6955 19.0454 53.9168 18.4285 53.9168 17.6157C53.9168 16.8246 53.6919 16.2259 53.2419 15.8194C52.7919 15.4058 52.1387 15.1989 51.2823 15.1989H50.3897V20.0869ZM50.3897 27.2936H51.9573C53.104 27.2936 53.9459 27.0686 54.4829 26.6187C55.049 26.1324 55.3321 25.5155 55.3321 24.768C55.3321 24.0422 55.0599 23.4326 54.5156 22.9391C53.9858 22.4528 53.0387 22.2097 51.6743 22.2097H50.3897V27.2936ZM70.3225 15.2534H63.5839V19.2922H70.1266V21.6763H63.5839V27.2936H70.3225V29.6777H61.0474V12.8693H70.3225V15.2534ZM86.075 13.7728V16.7774C84.609 15.5509 83.0922 14.9377 81.5246 14.9377C79.7973 14.9377 78.3421 15.5582 77.1591 16.7992C75.9689 18.033 75.3738 19.5426 75.3738 21.3279C75.3738 23.0915 75.9689 24.5793 77.1591 25.7913C78.3494 27.0033 79.8081 27.6093 81.5354 27.6093C82.4281 27.6093 83.1865 27.4642 83.8107 27.1739C84.159 27.0287 84.5183 26.8328 84.8884 26.586C85.2658 26.3393 85.6614 26.0417 86.075 25.6933V28.7524C84.6235 29.5725 83.0994 29.9826 81.5028 29.9826C79.1005 29.9826 77.0503 29.1443 75.352 27.4678C73.661 25.7768 72.8155 23.7374 72.8155 21.3497C72.8155 19.2087 73.5231 17.3 74.9383 15.6235C76.6801 13.5696 78.9336 12.5427 81.6987 12.5427C83.2083 12.5427 84.6671 12.9527 86.075 13.7728ZM99.5741 25.5954H92.3782L90.5058 29.6777H87.7733L96.0905 11.8133L104.114 29.6777H101.338L99.5741 25.5954ZM98.5399 23.2113L96.0469 17.4959L93.4342 23.2113H98.5399ZM105.638 29.6777L109.176 11.6064L114.946 24.67L120.922 11.6064L124.101 29.6777H121.499L119.877 19.5317L114.902 30.4507L110.068 19.5208L108.261 29.6777H105.638ZM136.947 15.2534H130.208V19.2922H136.751V21.6763H130.208V27.2936H136.947V29.6777H127.672V12.8693H136.947V15.2534ZM143.794 20.8925L139.168 12.8693H142.053L145.264 18.5628L148.639 12.8693H151.545L146.701 20.8925L151.785 29.6777H148.944L145.22 23.2439L141.388 29.6777H138.514L143.794 20.8925ZM165.058 14.6062V29.6777H163.185V14.6062H159.127V12.8672H169.16V14.6062H165.058ZM178.986 12.5773C183.78 12.5773 187.748 16.479 187.748 21.2947C187.748 26.1328 183.78 29.9676 178.986 29.9676C174.193 29.9676 170.224 26.1328 170.224 21.2947C170.224 16.479 174.193 12.5773 178.986 12.5773ZM178.986 14.3163C175.129 14.3163 172.097 17.46 172.097 21.2724C172.097 25.0626 175.174 28.2285 178.986 28.2285C182.799 28.2285 185.876 25.0626 185.876 21.2724C185.876 17.46 182.843 14.3163 178.986 14.3163ZM192.17 20.0685L199.326 12.8672H201.846L193.953 20.6928L202.113 29.6777H199.527L192.638 21.9636L192.17 22.4318V29.6777H190.297V12.8672H192.17V20.0685ZM207.917 22.4541L202.41 12.8672H204.573L208.854 20.3583L213.134 12.8672H215.297L209.79 22.4541V29.6777H207.917V22.4541ZM218.971 12.8672V22.8777C218.971 24.1262 218.926 25.5531 219.706 26.6233C220.442 27.6489 221.869 28.2285 223.095 28.2285C224.299 28.2285 225.615 27.6712 226.395 26.7348C227.287 25.6646 227.22 24.1931 227.22 22.8777V12.8672H229.093V23.3905C229.093 25.2187 228.959 26.6679 227.621 28.0502C226.462 29.2987 224.79 29.9676 223.095 29.9676C221.512 29.9676 219.885 29.3656 218.748 28.2508C217.276 26.8462 217.098 25.3079 217.098 23.3905V12.8672H218.971Z" fill="white"/>
</g>
<defs>
<clipPath id="clip0_14_921">
<rect width="231" height="41.5281" fill="white"/>
</clipPath>
</defs>
</svg>
