<svg width="178" height="32" viewBox="0 0 178 32" fill="none" xmlns="http://www.w3.org/2000/svg">
<g clip-path="url(#clip0_14_845)">
<rect x="24.6859" y="16.0002" width="5.17187" height="5.17187" transform="rotate(-45 24.6859 16.0002)" fill="#009E38"/>
<rect y="15.9995" width="5.17187" height="5.17187" transform="rotate(-45 0 15.9995)" fill="#009E38"/>
<rect x="4.11438" y="20.114" width="5.17187" height="5.17187" transform="rotate(-45 4.11438 20.114)" fill="#009E38"/>
<rect x="8.22882" y="24.2283" width="5.17187" height="5.17187" transform="rotate(-45 8.22882 24.2283)" fill="#009E38"/>
<rect x="12.3433" y="28.3428" width="5.17187" height="5.17187" transform="rotate(-45 12.3433 28.3428)" fill="#009E38"/>
<rect x="4.1142" y="11.8853" width="5.17187" height="5.17187" transform="rotate(-45 4.1142 11.8853)" fill="#009E38"/>
<rect x="8.22858" y="15.9998" width="5.17187" height="5.17187" transform="rotate(-45 8.22858 15.9998)" fill="#E63916"/>
<rect x="12.343" y="20.1143" width="5.17187" height="5.17187" transform="rotate(-45 12.343 20.1143)" fill="#1A479C"/>
<rect x="16.4575" y="24.2285" width="5.17187" height="5.17187" transform="rotate(-45 16.4575 24.2285)" fill="#009E38"/>
<rect x="8.22845" y="7.771" width="5.17187" height="5.17187" transform="rotate(-45 8.22845 7.771)" fill="#009E38"/>
<rect x="12.3428" y="11.8855" width="5.17187" height="5.17187" transform="rotate(-45 12.3428 11.8855)" fill="#1A479C"/>
<rect x="16.4572" y="16" width="5.17187" height="5.17187" transform="rotate(-45 16.4572 16)" fill="#E63916"/>
<rect x="20.5717" y="20.1143" width="5.17187" height="5.17187" transform="rotate(-45 20.5717 20.1143)" fill="#009E38"/>
<rect x="12.3428" y="3.65674" width="5.17187" height="5.17187" transform="rotate(-45 12.3428 3.65674)" fill="#009E38"/>
<rect x="16.457" y="7.77124" width="5.17187" height="5.17187" transform="rotate(-45 16.457 7.77124)" fill="#009E38"/>
<rect x="20.5714" y="11.8857" width="5.17187" height="5.17187" transform="rotate(-45 20.5714 11.8857)" fill="#009E38"/>
<path d="M37.0968 22.4573V9.50528H39.0429C39.9098 9.50528 40.6004 9.57239 41.1149 9.70661C41.635 9.84083 42.074 10.0673 42.4319 10.3861C42.7954 10.716 43.0835 11.1271 43.296 11.6192C43.5141 12.1169 43.6231 12.6202 43.6231 13.1292C43.6231 14.0575 43.268 14.8432 42.5578 15.4864C43.2456 15.7212 43.7881 16.1323 44.1852 16.7195C44.5878 17.3011 44.7891 17.9778 44.7891 18.7495C44.7891 19.7617 44.4312 20.6174 43.7154 21.3164C43.2848 21.747 42.801 22.0462 42.2642 22.214C41.677 22.3762 40.9416 22.4573 40.058 22.4573H37.0968ZM39.0513 15.0669H39.6637C40.3907 15.0669 40.922 14.9075 41.2575 14.5888C41.5987 14.2644 41.7692 13.7891 41.7692 13.1627C41.7692 12.5531 41.5959 12.0918 41.2491 11.7786C40.9024 11.4598 40.3991 11.3004 39.7392 11.3004H39.0513V15.0669ZM39.0513 20.6202H40.2593C41.1429 20.6202 41.7916 20.4468 42.2054 20.1001C42.6417 19.7254 42.8598 19.25 42.8598 18.674C42.8598 18.1148 42.65 17.645 42.2306 17.2647C41.8224 16.89 41.0926 16.7027 40.0412 16.7027H39.0513V20.6202ZM54.4109 11.3424H49.2183V14.4546H54.2599V16.2917H49.2183V20.6202H54.4109V22.4573H47.2638V9.50528H54.4109V11.3424ZM66.5491 10.2015V12.5168C65.4195 11.5717 64.2507 11.0991 63.0427 11.0991C61.7117 11.0991 60.5904 11.5773 59.6789 12.5336C58.7617 13.4843 58.3032 14.6475 58.3032 16.0232C58.3032 17.3822 58.7617 18.5286 59.6789 19.4625C60.596 20.3965 61.7201 20.8634 63.0511 20.8634C63.739 20.8634 64.3234 20.7516 64.8043 20.5279C65.0728 20.4161 65.3496 20.2651 65.6348 20.0749C65.9256 19.8848 66.2304 19.6555 66.5491 19.387V21.7442C65.4307 22.3762 64.2563 22.6922 63.0259 22.6922C61.1749 22.6922 59.595 22.0462 58.2864 20.7544C56.9834 19.4514 56.3318 17.8799 56.3318 16.04C56.3318 14.3902 56.8771 12.9194 57.9676 11.6276C59.3098 10.045 61.0462 9.25363 63.1769 9.25363C64.3402 9.25363 65.4642 9.5696 66.5491 10.2015ZM76.951 19.3116H71.4061L69.9633 22.4573H67.8578L74.2667 8.69159L80.4491 22.4573H78.31L76.951 19.3116ZM76.1541 17.4744L74.2331 13.0704L72.2198 17.4744H76.1541ZM81.6235 22.4573L84.3497 8.53221L88.7957 18.5985L93.401 8.53221L95.8505 22.4573H93.8456L92.5957 14.6391L88.7621 23.0529L85.0376 14.6307L83.6451 22.4573H81.6235ZM105.749 11.3424H100.557V14.4546H105.598V16.2917H100.557V20.6202H105.749V22.4573H98.602V9.50528H105.749V11.3424ZM111.025 15.6877L107.46 9.50528H109.683L112.158 13.8925L114.758 9.50528H116.998L113.265 15.6877L117.183 22.4573H114.993L112.124 17.4996L109.172 22.4573H106.957L111.025 15.6877ZM127.41 10.8437V22.4573H125.967V10.8437H122.841V9.50367H130.572V10.8437H127.41ZM138.143 9.28033C141.837 9.28033 144.895 12.2868 144.895 15.9977C144.895 19.7257 141.837 22.6806 138.143 22.6806C134.45 22.6806 131.392 19.7257 131.392 15.9977C131.392 12.2868 134.45 9.28033 138.143 9.28033ZM138.143 10.6204C135.171 10.6204 132.835 13.0427 132.835 15.9805C132.835 18.901 135.205 21.3406 138.143 21.3406C141.081 21.3406 143.452 18.901 143.452 15.9805C143.452 13.0427 141.115 10.6204 138.143 10.6204ZM148.302 15.0528L153.816 9.50367H155.758L149.676 15.5338L155.964 22.4573H153.971L148.662 16.513L148.302 16.8738V22.4573H146.859V9.50367H148.302V15.0528ZM160.436 16.891L156.193 9.50367H157.859L161.158 15.2761L164.456 9.50367H166.123L161.879 16.891V22.4573H160.436V16.891ZM168.954 9.50367V17.2174C168.954 18.1795 168.919 19.279 169.521 20.1036C170.088 20.8939 171.187 21.3406 172.132 21.3406C173.06 21.3406 174.073 20.9111 174.675 20.1895C175.362 19.3649 175.31 18.231 175.31 17.2174V9.50367H176.753V17.6126C176.753 19.0213 176.65 20.138 175.619 21.2031C174.726 22.1652 173.438 22.6806 172.132 22.6806C170.912 22.6806 169.658 22.2168 168.782 21.3578C167.648 20.2754 167.511 19.09 167.511 17.6126V9.50367H168.954Z" fill="white"/>
</g>
<defs>
<clipPath id="clip0_14_845">
<rect width="178" height="32" fill="white"/>
</clipPath>
</defs>
</svg>
