<svg width="32" height="32" viewBox="0 0 32 32" fill="none" xmlns="http://www.w3.org/2000/svg">
<g clip-path="url(#clip0_14_761)">
<rect x="24.6859" y="16.0005" width="5.17187" height="5.17187" transform="rotate(-45 24.6859 16.0005)" fill="#009E38"/>
<rect y="15.9998" width="5.17187" height="5.17187" transform="rotate(-45 0 15.9998)" fill="#009E38"/>
<rect x="4.11438" y="20.1143" width="5.17187" height="5.17187" transform="rotate(-45 4.11438 20.1143)" fill="#009E38"/>
<rect x="8.22882" y="24.2285" width="5.17187" height="5.17187" transform="rotate(-45 8.22882 24.2285)" fill="#009E38"/>
<rect x="12.3433" y="28.343" width="5.17187" height="5.17187" transform="rotate(-45 12.3433 28.343)" fill="#009E38"/>
<rect x="4.1142" y="11.8855" width="5.17187" height="5.17187" transform="rotate(-45 4.1142 11.8855)" fill="#009E38"/>
<rect x="8.22858" y="16" width="5.17187" height="5.17187" transform="rotate(-45 8.22858 16)" fill="#E63916"/>
<rect x="12.343" y="20.1145" width="5.17187" height="5.17187" transform="rotate(-45 12.343 20.1145)" fill="#1A479C"/>
<rect x="16.4575" y="24.2288" width="5.17187" height="5.17187" transform="rotate(-45 16.4575 24.2288)" fill="#009E38"/>
<rect x="8.22845" y="7.77124" width="5.17187" height="5.17187" transform="rotate(-45 8.22845 7.77124)" fill="#009E38"/>
<rect x="12.3428" y="11.8857" width="5.17187" height="5.17187" transform="rotate(-45 12.3428 11.8857)" fill="#1A479C"/>
<rect x="16.4572" y="16.0002" width="5.17187" height="5.17187" transform="rotate(-45 16.4572 16.0002)" fill="#E63916"/>
<rect x="20.5717" y="20.1145" width="5.17187" height="5.17187" transform="rotate(-45 20.5717 20.1145)" fill="#009E38"/>
<rect x="12.3428" y="3.65698" width="5.17187" height="5.17187" transform="rotate(-45 12.3428 3.65698)" fill="#009E38"/>
<rect x="16.457" y="7.77148" width="5.17187" height="5.17187" transform="rotate(-45 16.457 7.77148)" fill="#009E38"/>
<rect x="20.5714" y="11.886" width="5.17187" height="5.17187" transform="rotate(-45 20.5714 11.886)" fill="#009E38"/>
</g>
<defs>
<clipPath id="clip0_14_761">
<rect width="32" height="32" fill="white"/>
</clipPath>
</defs>
</svg>
