<svg width="320" height="511" viewBox="0 0 320 511" fill="none" xmlns="http://www.w3.org/2000/svg">
<rect x="244.168" y="155.048" width="50.1165" height="50.1165" transform="rotate(-45 244.168 155.048)" fill="#009E38"/>
<rect x="4.95679" y="155.042" width="50.1165" height="50.1165" transform="rotate(-45 4.95679 155.042)" fill="#009E38"/>
<rect x="44.8259" y="194.911" width="50.1165" height="50.1165" transform="rotate(-45 44.8259 194.911)" fill="#009E38"/>
<rect x="84.6958" y="234.781" width="50.1165" height="50.1165" transform="rotate(-45 84.6958 234.781)" fill="#009E38"/>
<rect x="124.566" y="274.65" width="50.1165" height="50.1165" transform="rotate(-45 124.566 274.65)" fill="#009E38"/>
<rect x="44.824" y="115.174" width="50.1165" height="50.1165" transform="rotate(-45 44.824 115.174)" fill="#009E38"/>
<rect x="84.6938" y="155.044" width="50.1165" height="50.1165" transform="rotate(-45 84.6938 155.044)" fill="#E63916"/>
<rect x="124.563" y="194.913" width="50.1165" height="50.1165" transform="rotate(-45 124.563 194.913)" fill="#1A479C"/>
<rect x="164.433" y="234.783" width="50.1165" height="50.1165" transform="rotate(-45 164.433 234.783)" fill="#009E38"/>
<rect x="84.6921" y="75.3054" width="50.1165" height="50.1165" transform="rotate(-45 84.6921 75.3054)" fill="#009E38"/>
<rect x="124.562" y="115.176" width="50.1165" height="50.1165" transform="rotate(-45 124.562 115.176)" fill="#1A479C"/>
<rect x="164.431" y="155.046" width="50.1165" height="50.1165" transform="rotate(-45 164.431 155.046)" fill="#E63916"/>
<rect x="204.301" y="194.916" width="50.1165" height="50.1165" transform="rotate(-45 204.301 194.916)" fill="#009E38"/>
<rect x="124.56" y="35.4377" width="50.1165" height="50.1165" transform="rotate(-45 124.56 35.4377)" fill="#009E38"/>
<rect x="164.429" y="75.3086" width="50.1165" height="50.1165" transform="rotate(-45 164.429 75.3086)" fill="#009E38"/>
<rect x="204.298" y="115.178" width="50.1165" height="50.1165" transform="rotate(-45 204.298 115.178)" fill="#009E38"/>
<path d="M12.2629 377.295V396.459H18.1813C24.8042 396.459 31.7795 394.838 31.7795 386.736C31.7795 378.492 23.8883 377.295 17.4062 377.295H12.2629ZM6.34446 401.955V348.83H15.0812C24.7338 348.83 32.8364 352.353 32.8364 363.203C32.8364 367.501 31.2158 371.165 27.6225 373.56C33.9637 375.11 37.6979 380.817 37.6979 387.159C37.6979 397.727 29.1726 401.955 18.6745 401.955H6.34446ZM12.2629 354.326V372.222H14.5175C21.2109 372.222 26.918 371.447 26.918 363.203C26.918 355.171 21.845 354.326 14.588 354.326H12.2629ZM46.3895 401.955V348.83H73.9382V354.326H52.3079V370.108H73.3041V375.604H52.3079V396.459H73.9382V401.955H46.3895ZM124.539 353.128V360.455C120.312 356.087 114.464 353.41 108.334 353.41C96.4972 353.41 86.915 363.696 86.915 375.392C86.915 387.088 96.5676 397.375 108.475 397.375C114.464 397.375 120.312 394.557 124.539 390.329V397.657C119.959 400.968 114.323 402.871 108.686 402.871C93.6789 402.871 80.9966 390.681 80.9966 375.604C80.9966 360.385 93.4675 347.914 108.686 347.914C114.605 347.914 119.819 349.605 124.539 353.128ZM165.179 386.877H142.491L136.08 401.955H129.598L154.117 346.293L178.002 401.955H171.449L165.179 386.877ZM162.854 381.381L153.976 360.103L144.887 381.381H162.854ZM179.92 401.955L190.7 345.8L210.005 390.4L229.381 345.8L240.16 401.955H234.101L227.267 366.021H227.126L210.005 404.139L192.954 366.021H192.813L185.979 401.955H179.92ZM246.958 401.955V348.83H274.507V354.326H252.877V370.108H273.873V375.604H252.877V396.459H274.507V401.955H246.958ZM295.868 374.476L281.495 348.83H288.259L299.109 368.84L309.96 348.83H316.724L302.35 374.476L318.062 401.955H311.299L299.109 380.113L286.92 401.955H280.156L295.868 374.476ZM65.9854 440.326V487.955H60.067V440.326H47.2437V434.83H78.9495V440.326H65.9854ZM110.002 433.914C125.15 433.914 137.691 446.244 137.691 461.463C137.691 476.752 125.15 488.871 110.002 488.871C94.8535 488.871 82.3122 476.752 82.3122 461.463C82.3122 446.244 94.8535 433.914 110.002 433.914ZM110.002 439.41C97.8127 439.41 88.2306 449.344 88.2306 461.392C88.2306 473.37 97.9536 483.375 110.002 483.375C122.05 483.375 131.773 473.37 131.773 461.392C131.773 449.344 122.191 439.41 110.002 439.41ZM151.663 457.588L174.28 434.83H182.242L157.3 459.56L183.087 487.955H174.914L153.143 463.576L151.663 465.056V487.955H145.745V434.83H151.663V457.588ZM201.429 465.126L184.026 434.83H190.861L204.389 458.503L217.916 434.83H224.751L207.348 465.126V487.955H201.429V465.126ZM236.36 434.83V466.465C236.36 470.411 236.219 474.92 238.685 478.302C241.01 481.543 245.52 483.375 249.395 483.375C253.199 483.375 257.356 481.613 259.822 478.654C262.641 475.272 262.429 470.622 262.429 466.465V434.83H268.348V468.086C268.348 473.863 267.925 478.443 263.698 482.811C260.034 486.757 254.749 488.871 249.395 488.871C244.392 488.871 239.249 486.968 235.656 483.445C231.005 479.007 230.442 474.145 230.442 468.086V434.83H236.36Z" fill="white"/>
</svg>
